<svg width="358" height="298" viewBox="0 0 358 298" fill="none" xmlns="http://www.w3.org/2000/svg">
<g opacity="0.5">
<path d="M38.727 183.899C40.0529 181.353 42.6886 179.833 45.5594 179.833H121.288C127.414 179.833 131.435 186.507 128.83 192.051C119.996 210.857 104.767 248.721 104.503 286.75C104.5 287.302 104.052 287.75 103.5 287.75H11.0835C10.5312 287.75 10.0831 287.302 10.087 286.75C10.4016 241.92 31.7378 197.321 38.727 183.899Z" stroke="white" stroke-width="20" stroke-linecap="round"/>
<circle cx="240" cy="71.9167" r="61.6667" stroke="white" stroke-width="20" stroke-linecap="round"/>
<ellipse cx="96" cy="92.4949" rx="50" ry="49.4949" stroke="white" stroke-width="16" stroke-linecap="round"/>
<path d="M160.727 183.899C162.053 181.353 164.689 179.833 167.559 179.833H312.441C315.312 179.833 317.947 181.353 319.273 183.899C326.263 197.321 347.599 241.92 347.913 286.75C347.917 287.302 347.469 287.75 346.917 287.75H133.083C132.531 287.75 132.083 287.302 132.087 286.75C132.402 241.92 153.738 197.321 160.727 183.899Z" stroke="white" stroke-width="20" stroke-linecap="round"/>
</g>
</svg>
