<svg width="492" height="492" viewBox="0 0 492 492" fill="none" xmlns="http://www.w3.org/2000/svg">
<g opacity="0.5">
<circle cx="246" cy="164" r="51.5" stroke="white" stroke-width="20" stroke-linecap="round"/>
<path d="M282.026 133.125C286.106 126.06 292.188 120.362 299.506 116.754C306.823 113.146 315.046 111.788 323.134 112.853C331.223 113.918 338.814 117.357 344.948 122.737C351.082 128.116 355.483 135.193 357.594 143.074C359.706 150.954 359.433 159.284 356.811 167.009C354.188 174.735 349.334 181.509 342.861 186.476C336.389 191.442 328.589 194.378 320.448 194.912C312.307 195.445 304.19 193.553 297.125 189.474" stroke="white" stroke-width="20"/>
<path d="M209.974 133.125C205.894 126.06 199.812 120.362 192.494 116.754C185.177 113.146 176.954 111.788 168.866 112.853C160.777 113.918 153.186 117.357 147.052 122.737C140.918 128.116 136.517 135.193 134.406 143.074C132.294 150.954 132.567 159.284 135.189 167.009C137.812 174.735 142.666 181.509 149.139 186.476C155.611 191.442 163.411 194.378 171.552 194.912C179.693 195.445 187.81 193.553 194.875 189.474" stroke="white" stroke-width="20"/>
<path d="M246 256.25C353.01 256.25 358.458 367.046 358.735 378.326C358.749 378.878 358.302 379.25 357.75 379.25H134.25C133.698 379.25 133.251 378.878 133.265 378.326C133.542 367.046 138.99 256.25 246 256.25Z" stroke="white" stroke-width="20" stroke-linecap="round"/>
<path d="M399.625 337.168L389.699 338.384L389.699 338.385L399.625 337.168ZM268.285 258.011L260.9 251.269L248.492 264.859L266.646 267.876L268.285 258.011ZM352.217 338.25L342.61 341.029L344.7 348.25H352.217V338.25ZM317.75 245.75C345.916 245.75 363.371 264.312 374.499 286.788C385.622 309.254 389.073 333.276 389.699 338.384L409.551 335.952C408.834 330.104 405.05 303.418 392.423 277.914C379.8 252.419 356.989 225.75 317.75 225.75V245.75ZM275.67 264.754C285.966 253.477 299.437 245.75 317.75 245.75V225.75C292.878 225.75 274.303 236.589 260.9 251.269L275.67 264.754ZM266.646 267.876C313.944 275.736 333.946 311.08 342.61 341.029L361.823 335.471C352.177 302.13 328.21 257.832 269.924 248.146L266.646 267.876ZM398.644 328.25H352.217V348.25H398.644V328.25ZM389.699 338.385C389.001 332.686 393.563 328.25 398.644 328.25V348.25C404.909 348.25 410.393 342.825 409.551 335.951L389.699 338.385Z" fill="white"/>
<path d="M223.714 258.011L225.354 267.876L243.508 264.859L231.099 251.269L223.714 258.011ZM92.3741 337.168L82.4484 335.952L82.4484 335.952L92.3741 337.168ZM139.783 338.25V348.25H147.3L149.389 341.029L139.783 338.25ZM174.25 245.75C192.563 245.75 206.033 253.477 216.33 264.754L231.099 251.269C217.696 236.589 199.121 225.75 174.25 225.75V245.75ZM102.3 338.385C102.926 333.276 106.377 309.254 117.5 286.788C128.628 264.312 146.084 245.75 174.25 245.75V225.75C135.011 225.75 112.2 252.419 99.5769 277.914C86.9492 303.418 83.165 330.104 82.4484 335.952L102.3 338.385ZM93.355 328.25C98.4366 328.25 102.998 332.686 102.3 338.384L82.4484 335.952C81.6061 342.824 87.0901 348.25 93.355 348.25V328.25ZM139.783 328.25H93.355V348.25H139.783V328.25ZM149.389 341.029C158.054 311.08 178.056 275.736 225.354 267.876L222.075 248.146C163.789 257.832 139.823 302.13 130.177 335.471L149.389 341.029Z" fill="white"/>
</g>
</svg>
