<svg version="1.1" id="Layer_1" xmlns="http://www.w3.org/2000/svg" xmlns:xlink="http://www.w3.org/1999/xlink" x="0px" y="0px"
	 width="100%" viewBox="0 0 668 629" enable-background="new 0 0 668 629" xml:space="preserve">
<path fill="#FFFFFF" opacity="1.000000" stroke="none" 
	d="
M334.000000,630.000000 
	C224.000015,630.000000 114.500015,629.979431 5.000160,630.095337 
	C1.576287,630.098999 0.903847,629.423767 0.905589,626.000000 
	C1.010923,419.000092 1.010929,212.000137 0.905619,5.000219 
	C0.903878,1.577004 1.575956,0.904011 4.999872,0.905640 
	C224.999786,1.010283 444.999725,1.010273 664.999634,0.905704 
	C668.422546,0.904077 669.096191,1.575553 669.094421,4.999756 
	C668.989075,211.999664 668.989136,418.999603 669.094360,625.999512 
	C669.096130,629.422180 668.425171,630.098999 665.000305,630.095398 
	C554.833618,629.979553 444.666809,630.000000 334.000000,630.000000 
z"/>
<path fill="#020202" opacity="1.000000" stroke="none" 
	d="
M506.891357,278.110229 
	C514.445251,285.671112 521.802246,292.927246 529.042847,300.297821 
	C539.935425,311.385956 539.812622,326.166565 528.858093,337.135223 
	C474.213959,391.849396 419.582825,446.576569 364.928314,501.280334 
	C351.421326,514.799500 337.675568,514.704468 324.090515,501.119598 
	C287.912567,464.942261 251.775894,428.723297 215.463898,392.681000 
	C212.299255,389.539886 212.362503,388.051941 215.491486,385.021362 
	C227.700073,373.196838 239.644470,361.097412 251.572906,348.987732 
	C253.659714,346.869232 255.445114,345.975403 258.492584,347.053009 
	C263.806396,348.931976 269.366150,348.859100 274.717590,347.120056 
	C277.349792,346.264740 278.971985,346.829041 280.826294,348.753845 
	C293.197296,361.595215 305.643646,374.364838 318.163879,387.060760 
	C319.906006,388.827301 320.183746,390.486908 319.863831,392.842957 
	C318.023285,406.397003 324.938751,418.741241 337.182098,424.131561 
	C349.166779,429.407959 363.132202,426.057892 371.565277,415.883453 
	C379.832489,405.909088 380.603912,391.793152 373.474457,380.949310 
	C366.216553,369.910095 352.523895,365.059875 339.653046,369.347595 
	C336.676819,370.339050 334.952240,370.030060 332.787018,367.767609 
	C321.150238,355.608307 309.375336,343.579956 297.544250,331.609009 
	C295.474335,329.514618 294.529480,327.531311 295.379547,324.567993 
	C296.552063,320.480530 296.583527,316.166595 295.133362,312.237396 
	C293.642761,308.198822 295.239990,305.541290 297.799591,302.984100 
	C309.589081,291.205658 321.446075,279.494415 333.181000,267.662048 
	C334.935333,265.893158 336.449005,265.424438 338.855103,266.224762 
	C344.209045,268.005646 349.706879,267.957062 355.079315,266.238068 
	C357.319550,265.521240 358.758728,266.056763 360.339844,267.694275 
	C372.146790,279.922272 383.973877,292.132568 395.954956,304.189117 
	C398.094147,306.341766 397.999054,308.311279 397.462524,310.911072 
	C394.241180,326.520447 403.697693,341.600464 418.970673,345.424286 
	C434.294830,349.260925 449.750702,340.456635 454.355774,325.267426 
	C460.879517,303.749817 441.665527,283.268433 419.499359,288.363129 
	C416.060211,289.153595 414.080109,288.540466 411.748718,286.102417 
	C400.347168,274.178986 388.807495,262.386261 377.209442,250.653366 
	C375.359558,248.782013 374.888977,247.162231 375.453156,244.520615 
	C378.057861,232.324631 373.332336,220.814362 363.274384,214.002792 
	C353.344269,207.277802 340.908936,207.214828 330.839966,213.838501 
	C320.816162,220.432465 315.831665,232.171432 318.426086,244.272247 
	C319.096161,247.397675 318.283508,249.141373 316.206482,251.189911 
	C303.986176,263.242554 291.826324,275.358215 279.793427,287.597473 
	C277.653198,289.774445 275.834717,290.196167 272.820221,289.580597 
	C252.038712,285.336884 233.870224,303.508301 237.859726,324.445068 
	C238.418625,327.378113 237.861038,329.364532 235.692474,331.499542 
	C222.985535,344.009796 210.362732,356.608093 197.890472,369.351807 
	C195.495972,371.798370 194.267746,371.453308 192.078354,369.212616 
	C182.062424,358.962158 171.858917,348.895142 161.737030,338.748047 
	C149.638153,326.619049 149.571136,312.308044 161.765854,300.049316 
	C186.448105,275.237518 211.215851,250.510712 235.964233,225.764740 
	C265.662384,196.069427 295.376465,166.390015 325.084991,136.705093 
	C338.185333,123.615150 352.230194,123.495117 365.209747,136.463409 
	C412.367828,183.580658 459.500275,230.723541 506.891357,278.110229 
z"/>
</svg>